<svg id="Capa_1" enable-background="new 0 0 512 512" height="512" viewBox="0 0 512 512" width="512" xmlns="http://www.w3.org/2000/svg"><path d="m302.696 1.394-183.383 84.797c-2.515 1.163-4.661 2.996-6.203 5.298l-89.921 134.226c-2.015 3.007-2.881 6.638-2.441 10.231l32.158 262.796c.926 7.57 7.353 13.258 14.978 13.258h311.908c4.003 0 7.841-1.59 10.671-4.421l96.482-96.502c3.216-3.217 4.809-7.712 4.337-12.236l-27.472-263.041c-.395-3.786-2.207-7.283-5.073-9.79l-139.772-122.277c-4.485-3.924-10.86-4.841-16.269-2.339z" fill="#f2f6fc"/><path d="m463.81 135.8c-.395-3.786-2.207-7.283-5.073-9.79l-139.772-122.277c-4.485-3.924-10.86-4.84-16.269-2.339l-46.744 21.615v488.991h123.84c4.003 0 7.841-1.59 10.671-4.421l96.482-96.502c3.216-3.217 4.809-7.712 4.337-12.236z" fill="#e9edf5"/><path d="m386.044 320.955-67.713-156.649-141.255 99.383-120.195 243.544c2.767 2.947 6.693 4.767 11.003 4.767h311.908c2.18 0 4.305-.487 6.251-1.374v-189.671z" fill="#cdd2e1"/><path d="m255.952 208.193v303.807h123.84c2.18 0 4.305-.487 6.251-1.374v-189.671l-67.713-156.649z" fill="#bec3d2"/><path d="m462.058 130.179-143.728 34.126 67.468 346.437c1.723-.748 3.311-1.809 4.665-3.163l96.482-96.502c3.216-3.217 4.809-7.712 4.337-12.236l-20.744-198.626-6.728-64.416c-.207-1.988-.815-3.892-1.752-5.62z" fill="#afb4c8"/><path d="m116.103 88.208c-1.148.938-2.161 2.038-2.994 3.281l-89.921 134.227c-2.014 3.007-2.88 6.638-2.441 10.23l15.886 129.819 16.273 132.978c.446 3.649 2.18 6.851 4.701 9.199l260.724-343.637z" fill="#e9edf5"/><path d="m255.952 246.521 62.379-82.216-62.379-23.472z" fill="#cdd2e1"/></svg>